<?xml version="1.0" encoding="UTF-8" standalone="no"?>
<!-- Created with Inkscape (http://www.inkscape.org/) -->

<svg
   xmlns:dc="http://purl.org/dc/elements/1.1/"
   xmlns:cc="http://creativecommons.org/ns#"
   xmlns:rdf="http://www.w3.org/1999/02/22-rdf-syntax-ns#"
   xmlns:svg="http://www.w3.org/2000/svg"
   xmlns="http://www.w3.org/2000/svg"
   version="1.1"
   width="1110"
   height="407.5"
   id="svg2"
   xml:space="preserve"><metadata
     id="metadata8"><rdf:RDF><cc:Work
         rdf:about=""><dc:format>image/svg+xml</dc:format><dc:type
           rdf:resource="http://purl.org/dc/dcmitype/StillImage" /><dc:title></dc:title></cc:Work></rdf:RDF></metadata><defs
     id="defs6"><clipPath
       id="clipPath30"><path
         d="M 0,326 888,326 888,0 0,0 0,326 z"
         id="path32" /></clipPath></defs><g
     transform="matrix(1.25,0,0,-1.25,0,407.5)"
     id="g10"><path
       d="m 177,195 101,0 0,-72 -101,0 0,72 z"
       id="path12"
       style="fill:#040606;fill-opacity:1;fill-rule:nonzero;stroke:none" /><path
       d="m 413,123 -72.5,0 0,99.5 72.5,0 0,-99.5 z"
       id="path14"
       style="fill:#040606;fill-opacity:1;fill-rule:nonzero;stroke:none" /><path
       d="m 113,168 -99.5,0 0,72.5 99.5,0 0,-72.5 z"
       id="path16"
       style="fill:#040606;fill-opacity:1;fill-rule:nonzero;stroke:none" /><g
       transform="translate(39.5,267)"
       id="g18"><path
         d="m 0,0 44.5,20.5 0,-41 L 0,0 z"
         id="path20"
         style="fill:#040606;fill-opacity:1;fill-rule:nonzero;stroke:none" /></g><g
       transform="translate(179,222.5)"
       id="g22"><path
         d="M 0,0 44.5,20.5 44.5,-21 0,0 z"
         id="path24"
         style="fill:#040606;fill-opacity:1;fill-rule:nonzero;stroke:none" /></g><g
       transform="translate(272,222)"
       id="g34"><path
         d="m 0,0 c 0,-10.77 -8.73,-19.5 -19.5,-19.5 -10.77,0 -19.5,8.73 -19.5,19.5 0,10.77 8.73,19.5 19.5,19.5 C -8.73,19.5 0,10.77 0,0"
         id="path36"
         style="fill:#040606;fill-opacity:1;fill-rule:nonzero;stroke:none" /></g><g
       transform="translate(397,248.5)"
       id="g38"><path
         d="m 0,0 c 0,-11.046 -8.954,-20 -20,-20 -11.046,0 -20,8.954 -20,20 0,11.046 8.954,20 20,20 C -8.954,20 0,11.046 0,0"
         id="path40"
         style="fill:#040606;fill-opacity:1;fill-rule:nonzero;stroke:none" /></g><g
       transform="translate(108,142.5)"
       id="g42"><path
         d="m 0,0 c 0,-10.77 -8.73,-19.5 -19.5,-19.5 -10.77,0 -19.5,8.73 -19.5,19.5 0,10.77 8.73,19.5 19.5,19.5 C -8.73,19.5 0,10.77 0,0"
         id="path44"
         style="fill:#040606;fill-opacity:1;fill-rule:nonzero;stroke:none" /></g><g
       transform="translate(58,142.5)"
       id="g46"><path
         d="m 0,0 c 0,-10.77 -8.73,-19.5 -19.5,-19.5 -10.77,0 -19.5,8.73 -19.5,19.5 0,10.77 8.73,19.5 19.5,19.5 C -8.73,19.5 0,10.77 0,0"
         id="path48"
         style="fill:#040606;fill-opacity:1;fill-rule:nonzero;stroke:none" /></g><g
       transform="translate(396,270)"
       id="g50"><path
         d="M 0,0 13.5,48 44,21 0,0 z"
         id="path52"
         style="fill:#040606;fill-opacity:1;fill-rule:nonzero;stroke:none" /></g><g
       transform="translate(37.2998,37.2246)"
       id="g54"><path
         d="M 0,0 -6.524,19.426 -13.274,0 0,0 z m 16.8,-18.225 -10.875,0 -3.15,9.451 -18.975,0 -3.225,-9.451 -10.875,0 19.425,53.401 8.175,0 19.5,-53.401 z"
         id="path56"
         style="fill:#040606;fill-opacity:1;fill-rule:nonzero;stroke:none" /></g><g
       transform="translate(92.0488,19)"
       id="g58"><path
         d="m 0,0 -9.525,0 0,3.6 c -2.55,-2.7 -5.801,-4.05 -9.75,-4.05 -3.851,0 -6.926,1.149 -9.225,3.45 -2.651,2.649 -3.976,6.35 -3.976,11.1 l 0,24.975 9.826,0 0,-23.625 c 0,-2.45 0.691,-4.301 2.075,-5.55 1.137,-1.05 2.57,-1.575 4.3,-1.575 1.779,0 3.238,0.525 4.375,1.575 1.382,1.249 2.075,3.1 2.075,5.55 l 0,23.625 9.825,0 L 0,0 z"
         id="path60"
         style="fill:#040606;fill-opacity:1;fill-rule:nonzero;stroke:none" /></g><g
       transform="translate(120.5488,19)"
       id="g62"><path
         d="m 0,0 -5.324,0 c -3.701,0 -6.576,1.174 -8.625,3.525 -1.801,2.049 -2.7,4.6 -2.7,7.65 l 0,19.35 -4.125,0 0,7.425 4.125,0 0,11.55 9.825,0 0,-11.55 6.824,0 0,-7.425 -6.824,0 0,-18.75 c 0,-2.351 1.111,-3.525 3.338,-3.525 L 0,8.25 0,0 z"
         id="path64"
         style="fill:#040606;fill-opacity:1;fill-rule:nonzero;stroke:none" /></g><g
       transform="translate(150.9229,38.5752)"
       id="g66"><path
         d="m 0,0 c 0,4.8 -0.742,7.95 -2.226,9.45 -1.137,1.15 -2.646,1.725 -4.524,1.725 -1.829,0 -3.313,-0.575 -4.45,-1.725 -1.484,-1.5 -2.225,-4.65 -2.225,-9.45 0,-4.851 0.741,-8.025 2.225,-9.525 1.137,-1.151 2.621,-1.725 4.45,-1.725 1.878,0 3.387,0.574 4.524,1.725 C -0.742,-8.025 0,-4.851 0,0 m 9.825,0 c 0,-3.75 -0.301,-6.726 -0.9,-8.925 -0.651,-2.451 -1.826,-4.551 -3.526,-6.301 -3.049,-3.2 -7.099,-4.799 -12.149,-4.799 -5.001,0 -9.026,1.599 -12.075,4.799 -1.7,1.75 -2.876,3.85 -3.526,6.301 -0.599,2.199 -0.899,5.175 -0.899,8.925 0,6.999 1.5,12.075 4.5,15.225 3,3.15 6.999,4.725 12,4.725 5.05,0 9.075,-1.575 12.075,-4.725 3,-3.15 4.5,-8.226 4.5,-15.225"
         id="path68"
         style="fill:#040606;fill-opacity:1;fill-rule:nonzero;stroke:none" /></g><g
       transform="translate(202.5234,19)"
       id="g70"><path
         d="m 0,0 -9.825,0 0,23.625 c 0,2.449 -0.696,4.3 -2.088,5.55 -1.145,1.05 -2.586,1.575 -4.324,1.575 -1.791,0 -3.257,-0.525 -4.4,-1.575 -1.392,-1.25 -2.089,-3.101 -2.089,-5.55 l 0,-23.625 -9.75,0 0,39.075 9.526,0 0,-3.6 c 2.55,2.7 5.8,4.05 9.75,4.05 3.849,0 6.925,-1.151 9.224,-3.45 C -1.325,33.424 0,29.725 0,24.975 L 0,0 z"
         id="path72"
         style="fill:#040606;fill-opacity:1;fill-rule:nonzero;stroke:none" /></g><g
       transform="translate(234.623,38.5752)"
       id="g74"><path
         d="m 0,0 c 0,4.8 -0.742,7.95 -2.226,9.45 -1.137,1.15 -2.646,1.725 -4.524,1.725 -1.829,0 -3.313,-0.575 -4.45,-1.725 -1.484,-1.5 -2.225,-4.65 -2.225,-9.45 0,-4.851 0.741,-8.025 2.225,-9.525 1.137,-1.151 2.621,-1.725 4.45,-1.725 1.878,0 3.387,0.574 4.524,1.725 C -0.742,-8.025 0,-4.851 0,0 m 9.825,0 c 0,-3.75 -0.301,-6.726 -0.9,-8.925 -0.651,-2.451 -1.826,-4.551 -3.526,-6.301 -3.049,-3.2 -7.099,-4.799 -12.149,-4.799 -5.001,0 -9.026,1.599 -12.075,4.799 -1.7,1.75 -2.876,3.85 -3.526,6.301 -0.599,2.199 -0.899,5.175 -0.899,8.925 0,6.999 1.5,12.075 4.5,15.225 3,3.15 6.999,4.725 12,4.725 5.05,0 9.075,-1.575 12.075,-4.725 3,-3.15 4.5,-8.226 4.5,-15.225"
         id="path76"
         style="fill:#040606;fill-opacity:1;fill-rule:nonzero;stroke:none" /></g><g
       transform="translate(308.9473,19)"
       id="g78"><path
         d="m 0,0 -9.825,0 0,23.625 c 0,2.449 -0.693,4.3 -2.075,5.55 -1.137,1.05 -2.57,1.575 -4.3,1.575 -1.73,0 -3.162,-0.5 -4.299,-1.5 -1.435,-1.25 -2.15,-3.051 -2.15,-5.4 l 0,-23.85 -9.826,0 0,23.625 c 0,2.449 -0.701,4.3 -2.1,5.55 -1.151,1.05 -2.6,1.575 -4.35,1.575 -1.8,0 -3.275,-0.525 -4.425,-1.575 -1.4,-1.25 -2.1,-3.101 -2.1,-5.55 l 0,-23.625 -9.75,0 0,39.075 9.525,0 0,-3.6 c 2.6,2.7 5.85,4.05 9.75,4.05 4.5,0 7.95,-1.65 10.35,-4.95 3.15,3.3 7.051,4.95 11.7,4.95 4.1,0 7.3,-1.151 9.601,-3.45 C -1.425,33.225 0,29.524 0,24.975 L 0,0 z"
         id="path80"
         style="fill:#040606;fill-opacity:1;fill-rule:nonzero;stroke:none" /></g><g
       transform="translate(341.0469,38.5752)"
       id="g82"><path
         d="m 0,0 c 0,4.8 -0.742,7.95 -2.226,9.45 -1.137,1.15 -2.646,1.725 -4.524,1.725 -1.829,0 -3.313,-0.575 -4.45,-1.725 -1.484,-1.5 -2.225,-4.65 -2.225,-9.45 0,-4.851 0.741,-8.025 2.225,-9.525 1.137,-1.151 2.621,-1.725 4.45,-1.725 1.878,0 3.387,0.574 4.524,1.725 C -0.742,-8.025 0,-4.851 0,0 m 9.825,0 c 0,-3.75 -0.301,-6.726 -0.9,-8.925 -0.651,-2.451 -1.826,-4.551 -3.526,-6.301 -3.049,-3.2 -7.099,-4.799 -12.149,-4.799 -5.001,0 -9.026,1.599 -12.075,4.799 -1.7,1.75 -2.876,3.85 -3.526,6.301 -0.599,2.199 -0.899,5.175 -0.899,8.925 0,6.999 1.5,12.075 4.5,15.225 3,3.15 6.999,4.725 12,4.725 5.05,0 9.075,-1.575 12.075,-4.725 3,-3.15 4.5,-8.226 4.5,-15.225"
         id="path84"
         style="fill:#040606;fill-opacity:1;fill-rule:nonzero;stroke:none" /></g><g
       transform="translate(392.2725,19)"
       id="g86"><path
         d="m 0,0 -9.525,0 0,3.6 c -2.55,-2.7 -5.801,-4.05 -9.75,-4.05 -3.851,0 -6.926,1.149 -9.225,3.45 -2.651,2.649 -3.976,6.35 -3.976,11.1 l 0,24.975 9.826,0 0,-23.625 c 0,-2.45 0.691,-4.301 2.075,-5.55 1.137,-1.05 2.57,-1.575 4.3,-1.575 1.779,0 3.238,0.525 4.375,1.575 1.382,1.249 2.075,3.1 2.075,5.55 l 0,23.625 9.825,0 L 0,0 z"
         id="path88"
         style="fill:#040606;fill-opacity:1;fill-rule:nonzero;stroke:none" /></g><g
       transform="translate(432.6221,31.2998)"
       id="g90"><path
         d="m 0,0 c 0,-4.15 -1.601,-7.35 -4.8,-9.6 -3,-2.1 -6.926,-3.15 -11.775,-3.15 -3.651,0 -6.626,0.326 -8.925,0.976 -2.9,0.849 -5.476,2.399 -7.726,4.649 l 6.375,6.375 c 2.45,-2.45 5.926,-3.675 10.426,-3.675 4.6,0 6.9,1.35 6.9,4.05 0,2.149 -1.376,3.35 -4.125,3.601 l -6.15,0.599 c -7.601,0.75 -11.4,4.4 -11.4,10.95 0,3.9 1.524,6.999 4.575,9.3 2.8,2.1 6.3,3.151 10.5,3.151 6.699,0 11.674,-1.527 14.925,-4.576 l -6,-6.075 c -1.95,1.75 -4.976,2.625 -9.075,2.625 -3.701,0 -5.55,-1.25 -5.55,-3.75 0,-2 1.349,-3.125 4.05,-3.375 l 6.15,-0.599 C -3.876,10.726 0,6.9 0,0"
         id="path92"
         style="fill:#040606;fill-opacity:1;fill-rule:nonzero;stroke:none" /></g><g
       transform="translate(493.4453,34.75)"
       id="g94"><path
         d="m 0,0 c 0,-5.051 -1.863,-9.013 -5.587,-11.888 -3.726,-2.876 -8.464,-4.312 -14.213,-4.312 -8.35,0 -14.849,2.349 -19.5,7.05 l 6.75,6.75 c 3,-3 7.3,-4.5 12.901,-4.5 6.299,0 9.449,2.2 9.449,6.6 0,1.999 -0.525,3.488 -1.574,4.462 -1.051,0.976 -2.652,1.613 -4.801,1.913 l -6.449,0.9 C -32.475,8.274 -37.2,13.249 -37.2,21.9 c 0,4.849 1.675,8.762 5.025,11.738 3.35,2.973 7.875,4.462 13.575,4.462 7.201,0 12.95,-2.076 17.25,-6.225 l -6.6,-6.525 c -2.55,2.449 -6.2,3.675 -10.949,3.675 -2.652,0 -4.688,-0.637 -6.114,-1.913 -1.424,-1.274 -2.136,-2.887 -2.136,-4.837 0,-1.55 0.562,-2.85 1.687,-3.9 1.125,-1.05 2.737,-1.725 4.837,-2.025 l 6.3,-0.9 c 4.55,-0.65 7.95,-2.025 10.2,-4.125 C -1.376,8.725 0,4.95 0,0"
         id="path96"
         style="fill:#040606;fill-opacity:1;fill-rule:nonzero;stroke:none" /></g><g
       transform="translate(533.7197,58.0752)"
       id="g98"><path
         d="m 0,0 -16.725,-45.375 c -0.8,-2.2 -1.775,-3.874 -2.925,-5.025 -2,-1.999 -4.8,-3 -8.4,-3 l -3.825,0 0,8.775 2.25,0 c 1.449,0 2.513,0.251 3.188,0.75 0.674,0.5 1.237,1.425 1.687,2.774 l 1.65,4.801 -13.35,36.3 10.275,0 8.1,-24.15 L -10.275,0 0,0 z"
         id="path100"
         style="fill:#040606;fill-opacity:1;fill-rule:nonzero;stroke:none" /></g><g
       transform="translate(568.9697,31.2998)"
       id="g102"><path
         d="m 0,0 c 0,-4.15 -1.601,-7.35 -4.8,-9.6 -3,-2.1 -6.926,-3.15 -11.775,-3.15 -3.651,0 -6.626,0.326 -8.925,0.976 -2.9,0.849 -5.476,2.399 -7.726,4.649 l 6.375,6.375 c 2.45,-2.45 5.926,-3.675 10.426,-3.675 4.6,0 6.9,1.35 6.9,4.05 0,2.149 -1.376,3.35 -4.125,3.601 l -6.15,0.599 c -7.601,0.75 -11.4,4.4 -11.4,10.95 0,3.9 1.524,6.999 4.575,9.3 2.8,2.1 6.3,3.151 10.5,3.151 6.699,0 11.674,-1.527 14.925,-4.576 l -6,-6.075 c -1.95,1.75 -4.976,2.625 -9.075,2.625 -3.701,0 -5.55,-1.25 -5.55,-3.75 0,-2 1.349,-3.125 4.05,-3.375 l 6.15,-0.599 C -3.876,10.726 0,6.9 0,0"
         id="path104"
         style="fill:#040606;fill-opacity:1;fill-rule:nonzero;stroke:none" /></g><g
       transform="translate(594.6934,19)"
       id="g106"><path
         d="m 0,0 -5.324,0 c -3.701,0 -6.576,1.174 -8.625,3.525 -1.801,2.049 -2.7,4.6 -2.7,7.65 l 0,19.35 -4.125,0 0,7.425 4.125,0 0,11.55 9.825,0 0,-11.55 6.824,0 0,-7.425 -6.824,0 0,-18.75 c 0,-2.351 1.111,-3.525 3.338,-3.525 L 0,8.25 0,0 z"
         id="path108"
         style="fill:#040606;fill-opacity:1;fill-rule:nonzero;stroke:none" /></g><g
       transform="translate(625.9668,42.1748)"
       id="g110"><path
         d="M 0,0 C -0.05,1.6 -0.35,3 -0.899,4.2 -2.1,6.9 -4.274,8.25 -7.425,8.25 -10.574,8.25 -12.75,6.9 -13.949,4.2 -14.5,3 -14.801,1.6 -14.85,0 L 0,0 z m 9.601,-6.675 -24.451,0 c 0,-2.6 0.762,-4.7 2.287,-6.3 1.526,-1.6 3.613,-2.4 6.263,-2.4 3.45,0 6.4,1.225 8.851,3.675 l 5.925,-5.775 c -2.151,-2.15 -4.251,-3.674 -6.3,-4.575 -2.352,-1.05 -5.201,-1.575 -8.551,-1.575 -12.05,0 -18.074,6.675 -18.074,20.025 0,6.249 1.574,11.175 4.724,14.775 3.049,3.45 7.15,5.176 12.3,5.176 5.3,0 9.499,-1.776 12.601,-5.326 2.949,-3.401 4.425,-7.85 4.425,-13.35 l 0,-4.35 z"
         id="path112"
         style="fill:#040606;fill-opacity:1;fill-rule:nonzero;stroke:none" /></g><g
       transform="translate(699.7666,19)"
       id="g114"><path
         d="m 0,0 -9.825,0 0,23.625 c 0,2.449 -0.693,4.3 -2.075,5.55 -1.137,1.05 -2.57,1.575 -4.3,1.575 -1.73,0 -3.162,-0.5 -4.299,-1.5 -1.435,-1.25 -2.15,-3.051 -2.15,-5.4 l 0,-23.85 -9.826,0 0,23.625 c 0,2.449 -0.701,4.3 -2.1,5.55 -1.151,1.05 -2.6,1.575 -4.35,1.575 -1.8,0 -3.275,-0.525 -4.425,-1.575 -1.4,-1.25 -2.1,-3.101 -2.1,-5.55 l 0,-23.625 -9.75,0 0,39.075 9.525,0 0,-3.6 c 2.6,2.7 5.85,4.05 9.75,4.05 4.5,0 7.95,-1.65 10.35,-4.95 3.15,3.3 7.051,4.95 11.7,4.95 4.1,0 7.3,-1.151 9.601,-3.45 C -1.425,33.225 0,29.524 0,24.975 L 0,0 z"
         id="path116"
         style="fill:#040606;fill-opacity:1;fill-rule:nonzero;stroke:none" /></g><g
       transform="translate(739.7412,31.2998)"
       id="g118"><path
         d="m 0,0 c 0,-4.15 -1.601,-7.35 -4.8,-9.6 -3,-2.1 -6.926,-3.15 -11.775,-3.15 -3.651,0 -6.626,0.326 -8.925,0.976 -2.9,0.849 -5.476,2.399 -7.726,4.649 l 6.375,6.375 c 2.45,-2.45 5.926,-3.675 10.426,-3.675 4.6,0 6.9,1.35 6.9,4.05 0,2.149 -1.376,3.35 -4.125,3.601 l -6.15,0.599 c -7.601,0.75 -11.4,4.4 -11.4,10.95 0,3.9 1.524,6.999 4.575,9.3 2.8,2.1 6.3,3.151 10.5,3.151 6.699,0 11.674,-1.527 14.925,-4.576 l -6,-6.075 c -1.95,1.75 -4.976,2.625 -9.075,2.625 -3.701,0 -5.55,-1.25 -5.55,-3.75 0,-2 1.349,-3.125 4.05,-3.375 l 6.15,-0.599 C -3.876,10.726 0,6.9 0,0"
         id="path120"
         style="fill:#040606;fill-opacity:1;fill-rule:nonzero;stroke:none" /></g><g
       transform="translate(800.6406,19)"
       id="g122"><path
         d="m 0,0 -34.65,0 0,53.4 10.425,0 0,-44.1 L 0,9.3 0,0 z"
         id="path124"
         style="fill:#040606;fill-opacity:1;fill-rule:nonzero;stroke:none" /></g><g
       transform="translate(828.165,33.4004)"
       id="g126"><path
         d="m 0,0 0,2.1 -7.682,0 c -3.63,0 -5.443,-1.476 -5.443,-4.425 0,-3 1.864,-4.5 5.593,-4.5 3.331,0 5.542,0.825 6.636,2.474 C -0.299,-3.45 0,-2.001 0,0 m 9.824,-14.4 -9.524,0 0,3.375 c -2.501,-2.501 -5.7,-3.75 -9.601,-3.75 -4.4,0 -7.7,1.125 -9.899,3.375 -2.201,2.25 -3.3,5.199 -3.3,8.849 0,3.301 1.133,6.012 3.4,8.138 2.268,2.125 5.569,3.187 9.905,3.187 l 9.195,0 0,1.951 c 0,4.099 -2.417,6.15 -7.25,6.15 -3.138,0 -5.629,-1.076 -7.473,-3.226 l -6.203,6.076 c 1.85,2.049 3.875,3.474 6.075,4.275 1.999,0.75 4.675,1.125 8.026,1.125 11.099,0 16.649,-4.602 16.649,-13.801 l 0,-25.724 z"
         id="path128"
         style="fill:#040606;fill-opacity:1;fill-rule:nonzero;stroke:none" /></g><g
       transform="translate(871.2891,38.5752)"
       id="g130"><path
         d="m 0,0 c 0,3.45 -0.271,5.925 -0.815,7.425 -0.99,2.5 -2.892,3.75 -5.709,3.75 -2.819,0 -4.722,-1.25 -5.71,-3.75 C -12.777,5.925 -13.05,3.45 -13.05,0 c 0,-3.45 0.273,-5.925 0.816,-7.425 0.988,-2.551 2.891,-3.825 5.71,-3.825 2.817,0 4.719,1.274 5.709,3.825 C -0.271,-5.925 0,-3.45 0,0 m 9.825,0 c 0,-4.001 -0.176,-7.001 -0.524,-9 -0.551,-3.251 -1.701,-5.751 -3.45,-7.5 -2.351,-2.351 -5.526,-3.525 -9.526,-3.525 -4.001,0 -7.25,1.375 -9.75,4.125 l 0,-3.675 -9.45,0 0,53.4 9.825,0 0,-17.775 c 2.342,2.599 5.483,3.9 9.42,3.9 3.986,0 7.151,-1.176 9.493,-3.525 1.744,-1.751 2.89,-4.25 3.439,-7.5 C 9.65,6.925 9.825,3.949 9.825,0"
         id="path132"
         style="fill:#040606;fill-opacity:1;fill-rule:nonzero;stroke:none" /></g></g></svg>